<svg width="77" height="28" viewBox="0 0 77 28" fill="none" xmlns="http://www.w3.org/2000/svg">
<g clip-path="url(#clip0_19_14)">
<path d="M23.3333 5.83333C23.6428 5.83333 23.9395 5.95624 24.1583 6.17504C24.3771 6.39383 24.5 6.69058 24.5 6.99999C24.5 7.30941 24.3771 7.60616 24.1583 7.82495C23.9395 8.04375 23.6428 8.16666 23.3333 8.16666H22.1667L22.1632 8.2495L21.0747 23.499C21.0328 24.0877 20.7693 24.6386 20.3375 25.0408C19.9056 25.4431 19.3373 25.6667 18.7472 25.6667H9.25167C8.6615 25.6667 8.09324 25.4431 7.66137 25.0408C7.22949 24.6386 6.96607 24.0877 6.92417 23.499L5.83567 8.25066C5.8339 8.2227 5.83312 8.19468 5.83333 8.16666H4.66667C4.35725 8.16666 4.0605 8.04375 3.84171 7.82495C3.62292 7.60616 3.5 7.30941 3.5 6.99999C3.5 6.69058 3.62292 6.39383 3.84171 6.17504C4.0605 5.95624 4.35725 5.83333 4.66667 5.83333H23.3333ZM19.8298 8.16666H8.17017L9.25283 23.3333H18.7472L19.8298 8.16666ZM16.3333 2.33333C16.6428 2.33333 16.9395 2.45624 17.1583 2.67504C17.3771 2.89383 17.5 3.19058 17.5 3.49999C17.5 3.80941 17.3771 4.10616 17.1583 4.32495C16.9395 4.54375 16.6428 4.66666 16.3333 4.66666H11.6667C11.3572 4.66666 11.0605 4.54375 10.8417 4.32495C10.6229 4.10616 10.5 3.80941 10.5 3.49999C10.5 3.19058 10.6229 2.89383 10.8417 2.67504C11.0605 2.45624 11.3572 2.33333 11.6667 2.33333H16.3333Z" fill="#FF0000"/>
</g>
<path d="M34.8523 19H31.7585V10.2727H34.8778C35.7557 10.2727 36.5114 10.4474 37.1449 10.7969C37.7784 11.1435 38.2656 11.642 38.6065 12.2926C38.9503 12.9432 39.1222 13.7216 39.1222 14.6278C39.1222 15.5369 38.9503 16.3182 38.6065 16.9716C38.2656 17.625 37.7756 18.1264 37.1364 18.4759C36.5 18.8253 35.7386 19 34.8523 19ZM33.6037 17.419H34.7756C35.321 17.419 35.7798 17.3224 36.152 17.1293C36.527 16.9332 36.8082 16.6307 36.9957 16.2216C37.1861 15.8097 37.2812 15.2784 37.2812 14.6278C37.2812 13.983 37.1861 13.456 36.9957 13.0469C36.8082 12.6378 36.5284 12.3366 36.1562 12.1435C35.7841 11.9503 35.3253 11.8537 34.7798 11.8537H33.6037V17.419ZM40.489 19V10.2727H46.3697V11.794H42.3342V13.8736H46.0671V15.3949H42.3342V17.4787H46.3867V19H40.489ZM47.8366 19V10.2727H49.6818V17.4787H53.4233V19H47.8366ZM54.6452 19V10.2727H60.5259V11.794H56.4904V13.8736H60.2234V15.3949H56.4904V17.4787H60.543V19H54.6452ZM61.6605 11.794V10.2727H68.8281V11.794H66.1562V19H64.3324V11.794H61.6605ZM70.0085 19V10.2727H75.8892V11.794H71.8537V13.8736H75.5866V15.3949H71.8537V17.4787H75.9062V19H70.0085Z" fill="#FF0000"/>
<defs>
<clipPath id="clip0_19_14">
<rect width="28" height="28" fill="white"/>
</clipPath>
</defs>
</svg>
