<svg width="33" height="42" viewBox="0 0 33 42" fill="none" xmlns="http://www.w3.org/2000/svg">
<path d="M1.16699 40.1315V4.66667C1.16699 3.69421 1.5533 2.76157 2.24093 2.07394C2.92857 1.38631 3.8612 1 4.83366 1H28.167C29.1395 1 30.0721 1.38631 30.7597 2.07394C31.4473 2.76157 31.8337 3.69421 31.8337 4.66667V40.1315L26.3884 36.5013C25.9917 36.2369 25.4636 36.2892 25.1266 36.6262L21.167 40.5858L17.2074 36.6262C17.0199 36.4387 16.7655 36.3333 16.5003 36.3333C16.2351 36.3333 15.9808 36.4387 15.7932 36.6262L11.8337 40.5858L7.8741 36.6262C7.53703 36.2892 7.00891 36.2369 6.61229 36.5013L1.16699 40.1315ZM9.50033 8.33333C8.94804 8.33333 8.50033 8.78105 8.50033 9.33333C8.50033 9.88562 8.94804 10.3333 9.50033 10.3333H23.5003C24.0526 10.3333 24.5003 9.88562 24.5003 9.33333C24.5003 8.78105 24.0526 8.33333 23.5003 8.33333H9.50033ZM9.50033 17.6667C8.94804 17.6667 8.50033 18.1144 8.50033 18.6667C8.50033 19.219 8.94804 19.6667 9.50033 19.6667H23.5003C24.0526 19.6667 24.5003 19.219 24.5003 18.6667C24.5003 18.1144 24.0526 17.6667 23.5003 17.6667H9.50033ZM18.8337 27C18.2814 27 17.8337 27.4477 17.8337 28C17.8337 28.5523 18.2814 29 18.8337 29H23.5003C24.0526 29 24.5003 28.5523 24.5003 28C24.5003 27.4477 24.0526 27 23.5003 27H18.8337Z" stroke="#A3A3A3" stroke-width="2" stroke-linecap="round" stroke-linejoin="round"/>
</svg>
